<?xml version="1.0" encoding="UTF-8" standalone="no"?>
<!-- Created with Inkscape (http://www.inkscape.org/) -->

<svg
   version="1.1"
   id="svg2"
   width="4000"
   height="2666.6667"
   viewBox="0 0 4000 2666.6667"
   sodipodi:docname="Na_Nov_28.eps"
   xmlns:inkscape="http://www.inkscape.org/namespaces/inkscape"
   xmlns:sodipodi="http://sodipodi.sourceforge.net/DTD/sodipodi-0.dtd"
   xmlns="http://www.w3.org/2000/svg"
   xmlns:svg="http://www.w3.org/2000/svg">
  <defs
     id="defs6">
    <clipPath
       clipPathUnits="userSpaceOnUse"
       id="clipPath40">
      <path
         d="m 6153.74,3892.7 c 0,0 17438.16,216.1 17849.66,84.6 0,0 59.4,-1287.1 19.7,-1287.1 -39.6,0 -17891.46,-62.9 -17869.36,0 22.1,62.9 0,1202.5 0,1202.5"
         id="path38" />
    </clipPath>
    <clipPath
       clipPathUnits="userSpaceOnUse"
       id="clipPath54">
      <path
         d="m 7835.83,13678.1 c 0,0 -100.49,-9448.8 0,-9448.8 100.49,0 14537.17,44.1 14559.27,132.3 22,88.1 -44.1,9389.3 -132.3,9411.4 -88.1,22 -14426.97,-94.9 -14426.97,-94.9"
         id="path52" />
    </clipPath>
    <clipPath
       clipPathUnits="userSpaceOnUse"
       id="clipPath96">
      <path
         d="m 9341.71,5952.2 c 869.99,-148.2 9122.69,15.2 9122.69,15.2 0,0 -21.9,4179.3 -102.6,5632.1 H 9207.39 c -12.69,-1442.2 5.97,-5625.5 134.32,-5647.3"
         id="path94" />
    </clipPath>
    <clipPath
       clipPathUnits="userSpaceOnUse"
       id="clipPath124">
      <path
         d="m 8714.08,12235.1 c -812.19,-824.7 -2139.19,-834.9 -2963.94,-22.7 -824.75,812.2 -834.93,2139.2 -22.74,2963.9 812.19,824.8 2139.19,834.9 2963.94,22.7 824.75,-812.1 834.93,-2139.2 22.74,-2963.9"
         id="path122" />
    </clipPath>
    <clipPath
       clipPathUnits="userSpaceOnUse"
       id="clipPath174">
      <path
         d="m 12795.6,12930.8 c 83,97.8 386.2,205 630.9,159.3 138,-25.8 245.8,-134.2 275.6,-271.3 67.4,-310.5 201.5,-1043 -19.3,-1110 -98.4,-29.9 -214,-6.5 -325.2,41.9 -22.4,-188.9 -111.9,-619.1 -128.1,-676.7 -22.7,-80.8 -555,298.8 -554.9,433 0.1,129.8 251.8,593.2 251.8,593.2 -52.7,127.9 -246.3,694.6 -130.8,830.6"
         id="path172" />
    </clipPath>
    <clipPath
       clipPathUnits="userSpaceOnUse"
       id="clipPath192">
      <path
         d="m 13897.1,13019 c -55.3,32.3 -129.1,32.7 -173.4,79.1 -53.3,55.8 -37.2,149.1 -75.8,215.9 -29,50 -86,78.7 -143.2,87.2 -57.5,8.6 -115.7,-0.3 -172.5,-9.5 -27.1,-4.4 -70.5,-7 -92.7,-28.8 -50.9,26.2 -106.1,38.3 -162.4,28.4 -230.4,-40.5 -635.1,-348.7 -566.6,-731.6 68.5,-382.9 415.9,-559.5 415.9,-559.5 l 22.3,140.5 c -117.4,25.7 -159.2,309.4 -83.2,313.3 75.9,3.9 107.7,-141.1 107.7,-141.1 -23,141.1 111.5,232.9 111.5,232.9 0,0 -85.3,-232.9 0,-232.9 85.3,0 265.7,347.7 265.7,347.7 0,0 -91.9,-282 19.6,-183.7 111.6,98.4 124.7,367.4 124.7,367.4 2.8,19.3 2.3,40.9 -1.2,63.8 16.3,-9.5 32.4,-19.3 47.8,-30.2 126.4,-89.3 198.2,-250.2 180.2,-403.9 98.2,26.9 193.9,83.9 239.5,175 45.5,91.2 24.2,218.7 -63.9,270"
         id="path190" />
    </clipPath>
    <clipPath
       clipPathUnits="userSpaceOnUse"
       id="clipPath240">
      <path
         d="m 12716.2,7613.4 c 0,0 603.8,930.2 972.5,1096.1 0,0 338,-450 691.7,-507 0,0 -931.7,-1253.8 -1066.1,-1249.2 0,0 -439.9,592.4 -598.1,660.1"
         id="path238" />
    </clipPath>
    <clipPath
       clipPathUnits="userSpaceOnUse"
       id="clipPath252">
      <path
         d="m 13559.5,7792.8 c 43,7.1 88.4,45.3 83.6,62.1 -4.8,16.7 -391.8,69.3 -411.5,75.6 -19.7,6.3 -202.5,105.9 -202.5,105.9 0,0 180.8,214.5 176.8,238 -3.6,21.2 -108.2,-11.9 -203.9,-44.9 -76.2,-26.3 -146.9,-52.6 -156.4,-51.5 -21.5,2.3 -93.5,42.1 -93.5,42.1 l -178,-391.9 c 0,0 234.4,-146.1 348.2,-203.4 v 0 c 0,0 341.1,-195.6 369.6,-203.2 28.5,-7.6 24.7,51.3 0,74.1 -9.8,9.1 -50.1,34.1 -94.9,61 82,-13.4 156.8,-23.1 173.8,-22 35.8,2.4 78.8,38.3 88.4,54.5 8,13.7 -258,64.2 -321,75.3 67.6,-8.1 363.4,-24.5 387.8,-22.2 26.3,2.3 100.4,43 98,64.5 -2.4,21.5 -489.7,93.1 -489.7,93.1 0,0 19.1,-2.4 63.5,-7.1 44.4,-4.8 318.7,-7.2 361.7,0"
         id="path250" />
    </clipPath>
    <clipPath
       clipPathUnits="userSpaceOnUse"
       id="clipPath270">
      <path
         d="m 16713.2,10610.9 c 0,0 84.4,69.1 102.9,82.9 18.4,13.9 142.9,202.3 179.8,228 36.9,25.6 381.8,88.5 378.3,67.1 -3.6,-21.4 -27,-51.1 -40.8,-67.1 -13.9,-16.1 -150,-90.2 -150,-90.2 v -328.9 l -139.7,-30.1 -75.1,-100.7 -255.4,239"
         id="path268" />
    </clipPath>
    <clipPath
       clipPathUnits="userSpaceOnUse"
       id="clipPath282">
      <path
         d="m 17460.3,10758 c 3.2,1.9 5.4,3.5 6.1,4.7 31.2,50.9 -32.1,77.3 -46.5,75 -9.2,-1.5 -29.2,-5.4 -42.4,-8.1 41.1,35.2 72.6,65.9 74.8,72.8 8.4,26.8 -43.2,90.8 -78.1,65.5 -11.8,-8.6 -40.8,-46.1 -40.8,-46.1 0,0 -127.7,-87.9 -156.9,-169 -17,-12.6 -30.8,-26.7 -38.5,-42.5 -16.9,-34.8 43.1,-32.2 116.3,-16.9 -39.6,-24.9 -76.4,-56.1 -87.1,-90.4 -7.9,-25 16.8,-27.7 55.3,-18.8 -15,-10.8 -27.2,-23.1 -34.2,-36.8 -35.8,-70.5 278.9,32.7 288.8,49.9 9.8,17.2 8,55.7 -31.7,60.7 -13.1,1.7 -50.3,-8.7 -50.3,-8.7 0,0 -2.4,-0.4 -6.5,-1.3 51.6,24.8 92.7,48.3 95.7,55.2 9.5,21.6 -6.3,42.2 -24,54.8"
         id="path280" />
    </clipPath>
    <clipPath
       clipPathUnits="userSpaceOnUse"
       id="clipPath300">
      <path
         d="m 18134.5,4944.5 c 0,0 -634.3,-156.3 -778.1,-277.9 -199.2,-168.2 -811,-2389.6 -811,-2389.6 0,0 286.1,-93.2 399.2,-26.6 113.1,66.5 805,1243.1 805,1679.4 l 384.9,30.9 c 0,0 73.9,364.9 0,983.8"
         id="path298" />
    </clipPath>
    <clipPath
       clipPathUnits="userSpaceOnUse"
       id="clipPath314">
      <path
         d="m 20850.4,5196.8 c 0,0 394,-1197.2 -461.2,-1363.3 -855.2,-166.2 -1805.3,-37.2 -1805.3,-37.2 l -134.8,1220.9 1217.1,139.2 1184.2,40.4"
         id="path312" />
    </clipPath>
    <clipPath
       clipPathUnits="userSpaceOnUse"
       id="clipPath332">
      <path
         d="m 21637.4,6634.8 c 0,0 -129.8,719.4 -268.1,943.2 -138.3,223.8 -792.3,502.7 -792.3,502.7 0,0 -630.3,87.6 -950.2,-82 -374.1,-198.3 -879.6,-998.6 -879.6,-998.6 l 399.7,-202.8 -461.4,-1499.8 c 0,0 405.8,-129.1 784.7,-195 222.3,-38.7 700.9,-9.3 1071.6,20.1 261.2,20.7 468.8,41.4 495.5,38.3 64.5,-7.5 -89.9,1401.9 -89.9,1401.9 110.7,-18.5 690,72 690,72"
         id="path330" />
    </clipPath>
    <clipPath
       clipPathUnits="userSpaceOnUse"
       id="clipPath346">
      <path
         d="m 19568.6,9670.8 c 0,0 -255.3,-81.6 -283.7,-184.5 -28.4,-102.8 60.8,-467.3 60.8,-467.3 l 301.1,325.9 -78.2,325.9"
         id="path344" />
    </clipPath>
    <clipPath
       clipPathUnits="userSpaceOnUse"
       id="clipPath358">
      <path
         d="m 20587,8080.7 -217.7,94.4 -0.4,1.2 c -30.1,70.3 -310.7,534.2 -310.7,534.2 41.4,108.6 191.6,589 91.6,700.8 -71.9,80.3 -328.6,163.5 -533.2,120 -115.4,-24.6 -157.8,-137.1 -226,-233.4 -209.6,-296.4 -146.6,-881.6 40.6,-933.1 83.3,-22.9 180,-0.7 272.3,42.4 10.9,-74.7 35.5,-194.3 60,-304.8 l -109,-92.2 c 0,0 121.4,-171.5 362.6,-156.8 241.2,14.6 569.9,227.3 569.9,227.3"
         id="path356" />
    </clipPath>
    <clipPath
       clipPathUnits="userSpaceOnUse"
       id="clipPath388">
      <path
         d="m 18409,4848.2 c 0,0 -550.2,-19.6 -650,-179.3 -99.8,-159.7 -771.7,-2488.2 -771.7,-2488.2 0,0 286,-93.2 399.1,-26.6 113.1,66.5 805.1,1243.1 805.1,1679.4 l 384.9,30.9 c 0,0 -93.5,364.9 -167.4,983.8"
         id="path386" />
    </clipPath>
    <clipPath
       clipPathUnits="userSpaceOnUse"
       id="clipPath400">
      <path
         d="m 16515.8,2280.2 c 0,0 343.3,-123 444.9,19.5 0,0 120.5,-150.7 111.7,-261.4 -8.9,-110.8 -28.1,-338.1 -77,-387.1 l -1440.8,-33.9 c -34.4,0 -60.1,31.4 -53.6,65.1 14.5,75.9 46,198.1 104.8,254 88.6,84.1 910,343.8 910,343.8"
         id="path398" />
    </clipPath>
    <clipPath
       clipPathUnits="userSpaceOnUse"
       id="clipPath422">
      <path
         d="m 16987.3,2180.7 c 0,0 343.3,-123.1 444.9,19.4 0,0 120.5,-150.6 111.6,-261.4 -8.8,-110.7 -28,-338.1 -76.9,-387 l -1440.8,-33.9 c -34.4,0 -60.1,31.3 -53.6,65.1 14.5,75.9 46,198.1 104.8,253.9 88.6,84.2 910,343.9 910,343.9"
         id="path420" />
    </clipPath>
    <clipPath
       clipPathUnits="userSpaceOnUse"
       id="clipPath446">
      <path
         d="m 20947.4,6562.8 c 0,0 163.6,-720.7 121.5,-748.8 -42.1,-28 -1031.4,-405.9 -1031.4,-405.9 l 131.4,-258.1 c 0,0 1364.4,197 1426.3,237.4 183.5,119.6 -10.7,1239.3 -10.7,1239.3 0,0 -505.7,-74.2 -637.1,-63.9"
         id="path444" />
    </clipPath>
    <clipPath
       clipPathUnits="userSpaceOnUse"
       id="clipPath460">
      <path
         d="m 18802.5,6972.1 -302.9,-606.5 507.3,-23.3 140,455 -344.4,174.8"
         id="path458" />
    </clipPath>
  </defs>
  <sodipodi:namedview
     id="namedview4"
     pagecolor="#ffffff"
     bordercolor="#000000"
     borderopacity="0.25"
     inkscape:showpageshadow="2"
     inkscape:pageopacity="0.0"
     inkscape:pagecheckerboard="0"
     inkscape:deskcolor="#d1d1d1" />
  <g
     id="g8"
     inkscape:groupmode="layer"
     inkscape:label="ink_ext_XXXXXX"
     transform="matrix(1.3333333,0,0,-1.3333333,0,2666.6667)">
    <g
       id="g10"
       transform="scale(0.1)">
      <path
         d="M 0,0 H 30000 V 20000 H 0 Z"
         style="fill:#ffffff;fill-opacity:1;fill-rule:nonzero;stroke:none"
         id="path12" />
      <path
         d="m 26728,2654.1 c 0,-354.1 -5435.7,-641.3 -12141,-641.3 -6705.24,0 -12140.94,287.2 -12140.94,641.3 0,354.2 5435.7,641.3 12140.94,641.3 6705.3,0 12141,-287.1 12141,-641.3"
         style="fill:#f6f9ff;fill-opacity:1;fill-rule:nonzero;stroke:none"
         id="path14" />
      <path
         d="m 6883.16,3462.3 c -1170.87,-264.8 -2487.63,-118.7 -3421.11,636.1 -933.46,754.7 -1339.69,2193 -719.12,3220.5 311.04,515.1 835.04,879.1 1114.5,1413.6 338.56,647.6 77.59,1263.7 -158.81,1903.6 -234.99,636.1 -406.47,1318.5 -305.8,1989.1 180.05,1199.3 1222.81,1794 2370.1,1736.4 1152.48,-57.9 2296.15,-719.6 3458.56,-393.3 1111.92,312.1 2026.42,1430.3 2892.12,2145.1 2077.8,1715.6 5123.3,2633.8 7229.4,428.8 403.3,-422.2 786.5,-871.3 1261.4,-1211 1224.9,-876.3 2823,-238.6 4143.8,-898.4 918.1,-458.7 1685.9,-1230.5 2174.9,-2129.5 590.9,-1086.4 874.4,-2519.5 370,-3686 -225.9,-522.6 -653.2,-914.4 -925.9,-1407.7 -308.4,-557.9 -281.8,-1133.1 -362.9,-1748.7 -210.1,-1593.3 -1842.2,-1931.8 -3203.7,-1953.7 -2350.9,-37.8 -4725.6,240.4 -7071.6,376.1 -2949.7,170.6 -5945.85,235 -8845.84,-421"
         style="fill:#f6f9ff;fill-opacity:1;fill-rule:nonzero;stroke:none"
         id="path16" />
      <path
         d="m 6588.52,4225.6 c -434.4,98.9 -882.95,205.4 -1238.2,474.3 -798.5,604.3 -871.26,1806.5 -1557.88,2535.5 753.4,-77.6 1425.56,-392.2 1944.89,-943.5 519.34,-551.3 818.7,-1309.6 851.19,-2066.3"
         style="fill:#d4dfff;fill-opacity:1;fill-rule:nonzero;stroke:none"
         id="path18" />
      <path
         d="m 6130.53,4095.7 c -395.68,283.8 -880.69,424.8 -1365.86,466 -485.18,41.3 -973.52,-12.4 -1454.39,-88.9 317.14,-283.1 710.68,-569.5 1108.31,-719.7 564.39,-213.3 1243.4,-37.5 1711.94,342.6"
         style="fill:#d4dfff;fill-opacity:1;fill-rule:nonzero;stroke:none"
         id="path20" />
      <path
         d="m 6947.85,4537.5 c -296.35,325.6 -349.24,803.1 -333.76,1243.1 22.25,632.6 154.94,1256.8 326.93,1866 202.34,-350.3 362.93,-712.7 490.65,-1096.6 91.28,-274.3 163.19,-559.5 157.18,-848.5 -6.02,-289.1 -96.78,-584.6 -295.4,-794.7 -104.18,-110.2 -266.63,-239.8 -345.6,-369.3"
         style="fill:#d4dfff;fill-opacity:1;fill-rule:nonzero;stroke:none"
         id="path22" />
      <path
         d="m 7176.64,3285.4 c -3.33,0 -6.58,1.7 -8.48,4.7 -65.48,104.6 -126,201.8 -182.68,292.8 -547.63,879 -732.11,1175.1 -1529.16,2047.4 -516.54,565.4 -1108.49,1099.3 -1670.52,1597.6 -4.13,3.7 -4.51,10 -0.84,14.1 3.66,4.1 9.98,4.5 14.12,0.9 562.42,-498.7 1154.81,-1033 1672.01,-1599.1 798.28,-873.7 983.01,-1170.2 1531.36,-2050.4 56.67,-90.9 117.2,-188.1 182.66,-292.7 2.93,-4.7 1.51,-10.8 -3.17,-13.8 -1.65,-1 -3.49,-1.5 -5.3,-1.5"
         style="fill:#6880e4;fill-opacity:1;fill-rule:nonzero;stroke:none"
         id="path24" />
      <path
         d="m 6990.93,3598.4 c -5.17,0 -9.55,3.9 -9.96,9.2 -73.44,929.3 -137.39,1835.8 -113.64,2709.4 11.79,433.5 45.75,873 78.6,1298.1 0.43,5.5 5.18,9.7 10.74,9.2 5.51,-0.4 9.63,-5.2 9.2,-10.7 -32.82,-424.9 -66.77,-864.1 -78.55,-1297.2 -23.72,-872.5 40.19,-1778.5 113.59,-2707.2 0.44,-5.6 -3.68,-10.4 -9.18,-10.8 h -0.8"
         style="fill:#6880e4;fill-opacity:1;fill-rule:nonzero;stroke:none"
         id="path26" />
      <path
         d="m 6445.99,4053 c -435.71,0 -870.6,67.1 -1293.46,132.4 l -1802.12,278.2 c -5.46,0.8 -9.2,5.9 -8.36,11.4 0.85,5.4 5.97,9.2 11.41,8.4 l 1802.12,-278.2 c 501.63,-77.5 1020.36,-157.6 1536,-124.6 5.53,0.4 10.27,-3.8 10.62,-9.3 0.35,-5.6 -3.83,-10.3 -9.34,-10.7 -82.24,-5.2 -164.6,-7.6 -246.87,-7.6"
         style="fill:#6880e4;fill-opacity:1;fill-rule:nonzero;stroke:none"
         id="path28" />
      <path
         d="m 7482.29,14098.7 c 0.9,48.2 41.98,86.9 92.78,87.3 1261.44,11.2 15208.43,224.3 15245.03,50.8 38.3,-181.8 -17,-10271.7 -17,-10271.7 0,0 -15281.09,-290.8 -15395.98,-109.1 -108.66,171.9 56.88,9256.6 75.17,10242.7"
         style="fill:#1c056d;fill-opacity:1;fill-rule:nonzero;stroke:none"
         id="path30" />
      <path
         d="m 6153.74,3892.7 c 0,0 17438.16,216.1 17849.66,84.6 0,0 59.4,-1287.1 19.8,-1287.1 -39.7,0 -17891.56,-62.9 -17869.46,0 22.11,62.9 0,1202.5 0,1202.5"
         style="fill:#8c9ef4;fill-opacity:1;fill-rule:nonzero;stroke:none"
         id="path32" />
      <g
         id="g34">
        <g
           id="g36"
           clip-path="url(#clipPath40)">
          <path
             d="m 7097.33,2579.6 h -390.09 v 1440.2 h 390.09 V 2579.6"
             style="fill:#6880e4;fill-opacity:1;fill-rule:nonzero;stroke:none"
             id="path42" />
          <path
             d="m 7579.98,2579.6 h -112.39 v 1440.2 h 112.39 V 2579.6"
             style="fill:#6880e4;fill-opacity:1;fill-rule:nonzero;stroke:none"
             id="path44" />
        </g>
      </g>
      <path
         d="m 7835.83,13678.1 c 0,0 -100.49,-9448.8 0,-9448.8 100.49,0 14537.17,44.1 14559.27,132.3 22,88.1 -44.1,9389.3 -132.3,9411.4 -88.1,22 -14426.97,-94.9 -14426.97,-94.9"
         style="fill:#8c9ef4;fill-opacity:1;fill-rule:nonzero;stroke:none"
         id="path46" />
      <g
         id="g48">
        <g
           id="g50"
           clip-path="url(#clipPath54)">
          <path
             d="m 7835.83,4229.3 c -7.61,0 -14.06,54.2 -19.5,154.2 l 1225,1885.4 c 18.64,-346.1 41.92,-560.6 70.72,-565.5 271.41,-46.2 1261.55,-62.2 2495.15,-62.2 599.4,0 1256,3.8 1915.9,9.6 l -911.2,-1402.2 c -2614.18,-12.9 -4737.74,-19.3 -4776.07,-19.3 m 5581.67,23.3 588.7,1402.9 c 176.3,1.8 351.8,3.7 525.6,5.8 3.7,-346 12.7,-581.5 29.8,-603.6 26,-33.7 827.8,-45 1844.9,-45 992.9,0 2190.7,10.8 3071.6,22.1 l -409.7,-742.6 c -1672.3,-16.4 -3743.8,-29.6 -5650.9,-39.6 m 6262.4,46 315.1,743.4 c 425.6,6.5 702.1,12.5 722.1,15.7 46.4,7.5 70.4,914.5 71.8,1857.7 l 904.7,2135 -906.1,-1642.3 c -5.7,824.8 -29.2,1559.3 -70.4,1600.2 -13.7,13.5 -148.4,23.1 -369.7,29.8 33.6,87.4 59.2,178.1 76.2,271 h 278.6 c 35,0 63.5,28.4 63.5,63.5 v 431.7 c 0,35 -28.5,63.4 -63.5,63.4 h -278.6 c -38.7,211.4 -121.4,410.9 -243.4,587.8 l 196.9,196.9 c 24.8,24.8 24.8,65 0,89.8 l -305.2,305.3 c -12.4,12.4 -28.7,18.6 -44.9,18.6 -16.3,0 -32.5,-6.2 -44.9,-18.6 l -197,-197 c -123.7,85.4 -258.6,151.5 -400.8,196.8 l 1379.3,2724.4 c 498,2.5 894.9,4 1155,4 h 43.9 c 187.1,0 293,-0.9 300.3,-2.7 76.6,-19.2 136.5,-7032.1 136.5,-8938.6 0,-289.5 -1.3,-461.2 -4.2,-472.8 -6.1,-24.4 -1113.5,-45.4 -2715.2,-63 M 7792.16,6006.9 c -0.68,211.7 -0.99,436.3 -0.99,671.1 -0.01,1121.7 7.16,2468.7 15.76,3680 l 2255.87,3337.9 c 1516.7,12 3608.6,28.2 5632.7,42.9 l -1064.1,-1894.7 c -995.7,2.3 -2065.8,4.2 -3004,4.2 -1205.2,0 -2192.02,-3 -2521.76,-11.7 -67.24,-1.8 -121.18,-55.9 -122.8,-123.1 -2,-83.1 -3.74,-207.1 -5.11,-362.8 -7.47,-848.9 -4.07,-2647.6 26.16,-3988.2 L 7792.16,6006.9 M 19785.5,9047.7 c -212,1.9 -450.7,2.7 -706.9,2.7 -206.2,0 -423.4,-0.5 -646.7,-1.5 -0.6,37.8 -1.2,75.8 -1.9,113.6 l 719.9,1421.9 c 452.5,-105.4 790.6,-511.9 790.6,-996 0,-198.4 -56.8,-383.8 -155,-540.7 m -1361.7,471.9 c -6,330.6 -12.9,653 -20.7,951.9 145.8,85.4 314.6,135.6 494.7,139.2 l -474,-1091.1 m -37.2,1505.3 c -7.6,218.7 -15.8,413.5 -24.8,574.6 h -246.3 c -10.5,127.2 -22,209.1 -34.4,233.9 0,0 -1504.4,5.9 -3289.5,10.3 l 1139.4,1896.8 c 1617.2,11.7 3173.4,22.2 4338.9,28.6 l -1072.5,-2468.7 v 72.1 c 0,35.1 -28.4,63.5 -63.5,63.5 h -431.7 c -35,0 -63.5,-28.4 -63.5,-63.5 V 11094 c -86.2,-15.9 -170.5,-39 -252.1,-69.1"
             style="fill:#9aabf6;fill-opacity:1;fill-rule:nonzero;stroke:none"
             id="path56" />
        </g>
      </g>
      <path
         d="m 16213.3,3647.1 h -2236.1 c -205.8,0 -372.6,166.9 -372.6,372.6 v 0.1 h 2981.3 v -0.1 c 0,-205.7 -166.8,-372.6 -372.6,-372.6"
         style="fill:#ffffff;fill-opacity:1;fill-rule:nonzero;stroke:none"
         id="path58" />
      <path
         d="m 15000,13969.6 c 0,-65.6 -53.2,-118.7 -118.8,-118.7 -65.5,0 -118.7,53.1 -118.7,118.7 0,65.6 53.2,118.8 118.7,118.8 65.6,0 118.8,-53.2 118.8,-118.8"
         style="fill:#8c9ef4;fill-opacity:1;fill-rule:nonzero;stroke:none"
         id="path60" />
      <path
         d="m 15428,13969.6 c 0,-65.6 -53.1,-118.7 -118.7,-118.7 -65.6,0 -118.8,53.1 -118.8,118.7 0,65.6 53.2,118.8 118.8,118.8 65.6,0 118.7,-53.2 118.7,-118.8"
         style="fill:#8c9ef4;fill-opacity:1;fill-rule:nonzero;stroke:none"
         id="path62" />
      <path
         d="m 20702.2,9867.7 h -278.6 c -38.7,211.4 -121.4,410.9 -243.4,587.8 l 196.9,196.9 c 24.8,24.8 24.8,65 0,89.8 l -305.2,305.3 c -24.8,24.8 -65,24.8 -89.8,0 l -197,-197 c -176.8,122.1 -376.4,204.7 -587.7,243.5 v 278.5 c 0,35.1 -28.4,63.5 -63.5,63.5 h -431.7 c -35,0 -63.5,-28.4 -63.5,-63.5 V 11094 c -211.3,-38.8 -410.9,-121.4 -587.7,-243.5 l -197,197 c -24.8,24.8 -65,24.8 -89.8,0 l -305.2,-305.3 c -24.8,-24.8 -24.8,-65 0,-89.8 l 197,-196.9 c -122.1,-176.9 -204.7,-376.4 -243.5,-587.8 H 17134 c -35.1,0 -63.5,-28.4 -63.5,-63.4 v -431.7 c 0,-35.1 28.4,-63.5 63.5,-63.5 h 278.5 c 38.8,-211.4 121.4,-410.9 243.5,-587.8 l -197,-196.9 c -24.8,-24.8 -24.8,-65 0,-89.8 l 305.2,-305.3 c 24.8,-24.8 65,-24.8 89.8,0 l 197,197 c 176.8,-122 376.4,-204.7 587.7,-243.4 v -278.6 c 0,-35.1 28.5,-63.5 63.5,-63.5 h 431.7 c 35.1,0 63.5,28.4 63.5,63.5 v 278.6 c 211.3,38.7 410.9,121.4 587.7,243.4 l 197,-197 c 24.8,-24.8 65,-24.8 89.8,0 l 305.2,305.3 c 24.8,24.8 24.8,65 0,89.8 l -196.9,196.9 c 122,176.9 204.7,376.4 243.4,587.8 h 278.6 c 35,0 63.5,28.4 63.5,63.5 v 431.7 c 0,35 -28.5,63.4 -63.5,63.4 M 18918.1,8566 c -563.8,0 -1022.5,458.6 -1022.5,1022.4 0,563.8 458.7,1022.5 1022.5,1022.5 563.7,0 1022.4,-458.7 1022.4,-1022.5 0,-563.8 -458.7,-1022.4 -1022.4,-1022.4"
         style="fill:#ffffff;fill-opacity:1;fill-rule:nonzero;stroke:none"
         id="path64" />
      <path
         d="m 14561.6,9008.3 c 0,0 6059.7,94.8 6155.5,0 95.8,-94.9 95.8,-3935.1 0,-3950.6 -95.8,-15.5 -6083.7,-92.9 -6155.5,0 -71.9,92.9 0,3950.6 0,3950.6"
         style="fill:#6880e4;fill-opacity:1;fill-rule:nonzero;stroke:none"
         id="path66" />
      <path
         d="m 13523.1,5650.8 155.8,239.7 h 425.9 l -98.6,-235 c -160.7,-1.7 -322,-3.2 -483.1,-4.7 m -4481.77,618.1 c -15.53,288.3 -27.84,667.8 -37.44,1093.6 l 229.48,256.8 c 8.58,-382.7 19.36,-728.5 32.67,-1004.6 l -224.71,-345.8 m 5603.57,5330.6 H 14494 l 137.4,244.6 c 53.4,-0.1 107.2,-0.3 160.2,-0.4 l -146.7,-244.2"
         style="fill:#6a81da;fill-opacity:1;fill-rule:nonzero;stroke:none"
         id="path68" />
      <path
         d="m 11607.2,5641.2 c -1233.6,0 -2223.74,16 -2495.15,62.2 -28.8,4.9 -52.08,219.4 -70.72,565.5 l 224.71,345.8 c 19.42,-402.7 44.26,-657.2 75.67,-662.5 271.41,-46.3 1261.59,-62.2 2495.19,-62.2 128.7,0 260,0.2 393.4,0.5 v 0 h 1448.6 l -155.8,-239.7 c -659.9,-5.8 -1316.5,-9.6 -1915.9,-9.6 m 2399,14.3 98.6,235 h 424.8 c 0,0 0.2,5.1 0.5,14.7 0.3,-85.9 0.9,-167.6 1.7,-243.9 -173.8,-2.1 -349.3,-4 -525.6,-5.8 m -5002.31,1707 c -30.23,1340.6 -33.63,3139.3 -26.16,3988.2 1.37,155.7 3.11,279.7 5.11,362.8 1.62,67.2 55.56,121.3 122.8,123.1 329.74,8.7 1316.56,11.7 2521.76,11.7 938.2,0 2008.3,-1.9 3004,-4.2 L 14494,11599.5 H 9207.39 c -7.45,-847.2 -4.09,-2640.5 25.98,-3980.2 l -229.48,-256.8 m 9111.61,4237 h -3470.6 l 146.7,244.2 c 1785.1,-4.4 3289.5,-10.3 3289.5,-10.3 12.4,-24.8 23.9,-106.7 34.4,-233.9"
         style="fill:#748adb;fill-opacity:1;fill-rule:nonzero;stroke:none"
         id="path70" />
      <path
         d="m 14531.8,5661.3 c -0.8,76.3 -1.4,158 -1.7,243.9 0,0.7 0,1.4 0,2.2 1627,18 3140.6,45.1 3703.2,55.6 1,-155.9 1.5,-244.4 1.5,-244.4 0,0 -1738,-34.4 -3703,-57.3"
         style="fill:#516ccf;fill-opacity:1;fill-rule:nonzero;stroke:none"
         id="path72" />
      <path
         d="m 9719.89,5334.7 c 0,-75.3 -61.03,-136.3 -136.32,-136.3 -75.28,0 -136.31,61 -136.31,136.3 0,75.3 61.03,136.3 136.31,136.3 75.29,0 136.32,-61 136.32,-136.3"
         style="fill:#d4dfff;fill-opacity:1;fill-rule:nonzero;stroke:none"
         id="path74" />
      <path
         d="m 10440.2,5334.7 c 0,-75.3 -61.1,-136.3 -136.3,-136.3 -75.3,0 -136.4,61 -136.4,136.3 0,75.3 61.1,136.3 136.4,136.3 75.2,0 136.3,-61 136.3,-136.3"
         style="fill:#d4dfff;fill-opacity:1;fill-rule:nonzero;stroke:none"
         id="path76" />
      <path
         d="m 11158.9,5333.2 c 0,-75.3 -61,-136.4 -136.3,-136.4 -75.3,0 -136.3,61.1 -136.3,136.4 0,75.2 61,136.3 136.3,136.3 75.3,0 136.3,-61.1 136.3,-136.3"
         style="fill:#d4dfff;fill-opacity:1;fill-rule:nonzero;stroke:none"
         id="path78" />
      <path
         d="m 11879.2,5333.2 c 0,-75.3 -61,-136.4 -136.3,-136.4 -75.3,0 -136.3,61.1 -136.3,136.4 0,75.2 61,136.3 136.3,136.3 75.3,0 136.3,-61.1 136.3,-136.3"
         style="fill:#d4dfff;fill-opacity:1;fill-rule:nonzero;stroke:none"
         id="path80" />
      <path
         d="m 12599.5,5333.2 c 0,-75.3 -61,-136.4 -136.3,-136.4 -75.3,0 -136.3,61.1 -136.3,136.4 0,75.2 61,136.3 136.3,136.3 75.3,0 136.3,-61.1 136.3,-136.3"
         style="fill:#d4dfff;fill-opacity:1;fill-rule:nonzero;stroke:none"
         id="path82" />
      <path
         d="m 13319.8,5333.2 c 0,-75.3 -61,-136.4 -136.3,-136.4 -75.3,0 -136.3,61.1 -136.3,136.4 0,75.2 61,136.3 136.3,136.3 75.3,0 136.3,-61.1 136.3,-136.3"
         style="fill:#d4dfff;fill-opacity:1;fill-rule:nonzero;stroke:none"
         id="path84" />
      <path
         d="m 14040.1,5333.2 c 0,-75.3 -61,-136.4 -136.3,-136.4 -75.3,0 -136.3,61.1 -136.3,136.4 0,75.2 61,136.3 136.3,136.3 75.3,0 136.3,-61.1 136.3,-136.3"
         style="fill:#d4dfff;fill-opacity:1;fill-rule:nonzero;stroke:none"
         id="path86" />
      <path
         d="m 9341.71,5952.2 c 869.99,-148.2 9122.69,15.2 9122.69,15.2 0,0 -21.9,4179.3 -102.6,5632.1 H 9207.39 c -12.69,-1442.2 5.97,-5625.5 134.32,-5647.3"
         style="fill:#d4dfff;fill-opacity:1;fill-rule:nonzero;stroke:none"
         id="path88" />
      <g
         id="g90">
        <g
           id="g92"
           clip-path="url(#clipPath96)">
          <path
             d="m 9698.98,10973.7 c 0,0 8289.12,301.5 8320.62,89.2 31.4,-212.4 0,-380.3 0,-380.3 0,0 -8330.08,-248.9 -8320.62,-159.6 9.46,89.4 0,450.7 0,450.7"
             style="fill:#f6f9ff;fill-opacity:1;fill-rule:nonzero;stroke:none"
             id="path98" />
          <path
             d="m 9698.98,9969 c 0,0 8299.12,120.4 8320.62,58.6 21.4,-61.9 123.9,-529.4 0,-484.3 -124,45.1 -8303.82,-280.8 -8320.62,-164.1 -16.8,116.7 0,589.8 0,589.8"
             style="fill:#f6f9ff;fill-opacity:1;fill-rule:nonzero;stroke:none"
             id="path100" />
          <path
             d="m 9719.89,8744.8 c 0,0 8368.31,14.6 8350.51,-34.3 -17.9,-49 55,-470 0,-507.4 -55,-37.4 -8352.72,-116 -8350.51,-39.5 2.21,76.5 0,581.2 0,581.2"
             style="fill:#f6f9ff;fill-opacity:1;fill-rule:nonzero;stroke:none"
             id="path102" />
          <path
             d="m 9765.39,7589.2 c 0,0 8259.71,83.8 8254.21,0 -5.6,-83.7 6,-591.9 -63.4,-557.6 -30.2,14.9 -1576.6,-0.7 -3317.8,-16.3 -2269.1,-20.3 -4868.92,-40.5 -4873.17,6.6 -8.99,99.5 0.16,567.3 0.16,567.3"
             style="fill:#f6f9ff;fill-opacity:1;fill-rule:nonzero;stroke:none"
             id="path104" />
        </g>
      </g>
      <path
         d="m 9335.29,12085.4 c -67.23,-1.8 -121.17,-55.9 -122.79,-123.1 -2.01,-83.1 -3.74,-207.1 -5.11,-362.8 h 9154.41 c -14.9,268.8 -31.8,444.3 -51,482.7 0,0 -7911.2,31.2 -8975.51,3.2"
         style="fill:#6880e4;fill-opacity:1;fill-rule:nonzero;stroke:none"
         id="path106" />
      <path
         d="m 9698.98,11815.2 c 0,-52.1 -42.19,-94.3 -94.24,-94.3 -52.04,0 -94.23,42.2 -94.23,94.3 0,52 42.19,94.2 94.23,94.2 52.05,0 94.24,-42.2 94.24,-94.2"
         style="fill:#1b3d9e;fill-opacity:1;fill-rule:nonzero;stroke:none"
         id="path108" />
      <path
         d="m 10098.3,11815.2 c 0,-52.1 -42.1,-94.3 -94.2,-94.3 -52.04,0 -94.23,42.2 -94.23,94.3 0,52 42.19,94.2 94.23,94.2 52.1,0 94.2,-42.2 94.2,-94.2"
         style="fill:#d4dfff;fill-opacity:1;fill-rule:nonzero;stroke:none"
         id="path110" />
      <path
         d="m 10497.7,11815.2 c 0,-52.1 -42.2,-94.3 -94.2,-94.3 -52.1,0 -94.3,42.2 -94.3,94.3 0,52 42.2,94.2 94.3,94.2 52,0 94.2,-42.2 94.2,-94.2"
         style="fill:#d4dfff;fill-opacity:1;fill-rule:nonzero;stroke:none"
         id="path112" />
      <path
         d="m 5520.28,11610.6 -378.64,372.9 196.46,199.5 378.64,-372.9 -196.46,-199.5"
         style="fill:#1c056d;fill-opacity:1;fill-rule:nonzero;stroke:none"
         id="path114" />
      <path
         d="m 8714.08,12235.1 c -812.19,-824.7 -2139.19,-834.9 -2963.94,-22.7 -824.75,812.2 -834.93,2139.2 -22.74,2963.9 812.19,824.8 2139.19,834.9 2963.94,22.7 824.75,-812.1 834.93,-2139.2 22.74,-2963.9"
         style="fill:#68a9fd;fill-opacity:1;fill-rule:nonzero;stroke:none"
         id="path116" />
      <g
         id="g118">
        <g
           id="g120"
           clip-path="url(#clipPath124)">
          <path
             d="m 6613.89,11699.1 c -315.35,95.1 -612.76,266.1 -863.75,513.3 -123.73,121.8 -229.15,255.3 -316.19,396.9 l 1402.89,98.8 c 0,0 -675.63,4.8 -1229.49,80.4 -97.98,13.3 -193.77,20.1 -282.69,22.8 -133.05,282.1 -199.73,588.1 -199.8,894 -0.04,180.4 23.02,360.6 69.27,536.2 l 2720.56,-118.1 -2621.8,406 c 100.07,234.4 244.85,454.3 434.51,646.9 201.17,204.3 434.04,358.6 682.91,462.8 l 2280.3,-439.3 c 0.25,-0.3 0.48,-0.5 0.73,-0.8 416.4,-410 625.16,-951.3 625.28,-1492.9 0.06,-270.1 -51.73,-540.2 -155.56,-794.2 H 7746.74 l 1340.99,-159.8 c -94.96,-185.8 -219.48,-360.4 -373.65,-517 -245.83,-249.6 -538.93,-424.7 -850.88,-524.8 l -1249.31,-11.2"
             style="fill:#97c0fe;fill-opacity:1;fill-rule:nonzero;stroke:none"
             id="path126" />
        </g>
      </g>
      <path
         d="m 8673.87,15181.3 c -394.15,388.1 -915.86,599.6 -1469.02,595.3 -553.16,-4.2 -1071.56,-223.6 -1459.7,-617.8 -388.14,-394.1 -599.57,-915.8 -595.32,-1469 4.24,-553.1 223.64,-1071.5 617.79,-1459.7 394.14,-388.1 915.85,-599.6 1469.01,-595.3 553.16,4.2 1071.56,223.6 1459.7,617.8 388.15,394.1 599.57,915.8 595.33,1469 -4.25,553.1 -223.65,1071.6 -617.79,1459.7 z M 5495.42,11953.7 c -236.46,232.9 -420.28,505.2 -546.36,809.4 -121.74,293.7 -184.7,604.5 -187.15,923.7 -2.45,319.3 55.74,631 172.96,926.6 121.39,306.1 301.02,581.2 533.87,817.6 232.86,236.5 505.17,420.3 809.36,546.4 293.71,121.7 604.52,184.7 923.78,187.1 319.26,2.5 631,-55.7 926.54,-172.9 306.09,-121.4 581.18,-301 817.64,-533.9 236.46,-232.9 420.28,-505.2 546.36,-809.4 121.74,-293.7 184.71,-604.5 187.16,-923.7 2.44,-319.3 -55.75,-631 -172.97,-926.6 -121.39,-306.1 -301.01,-581.2 -533.87,-817.6 -232.86,-236.5 -505.16,-420.3 -809.36,-546.4 -293.71,-121.7 -604.51,-184.7 -923.77,-187.1 -319.27,-2.5 -631,55.7 -926.55,172.9 -306.09,121.4 -581.18,301 -817.64,533.9"
         style="fill:#1b3d9e;fill-opacity:1;fill-rule:nonzero;stroke:none"
         id="path128" />
      <path
         d="m 3913.57,9981.9 -365.45,359.9 c -66.91,65.9 -67.73,173.5 -1.85,240.4 l 1403.32,1425 c 65.89,66.9 173.53,67.8 240.44,1.9 l 365.45,-359.9 c 66.9,-65.9 67.73,-173.5 1.84,-240.4 L 4154,9983.7 c -65.88,-66.9 -173.53,-67.7 -240.43,-1.8"
         style="fill:#1b3d9e;fill-opacity:1;fill-rule:nonzero;stroke:none"
         id="path130" />
      <path
         d="m 7221.23,15960.2 c -5.95,0 -11.83,0 -17.79,-0.1 -602.17,-4.6 -1166.5,-243.5 -1589.03,-672.5 -422.54,-429.1 -652.69,-997 -648.07,-1599.2 4.62,-602.2 243.46,-1166.5 672.53,-1589 424.82,-418.4 985.85,-648.2 1581.39,-648.2 5.94,0 11.82,0.1 17.77,0.1 602.18,4.6 1166.51,243.5 1589.04,672.5 422.54,429.1 652.69,997 648.07,1599.2 -4.62,602.2 -243.45,1166.5 -672.52,1589 -424.83,418.4 -985.85,648.2 -1581.39,648.2 z m -0.98,-4537.3 c -603.06,0 -1171.06,232.7 -1601.25,656.3 -434.46,427.8 -676.3,999.2 -680.98,1609 -4.68,609.7 228.37,1184.8 656.21,1619.2 427.84,434.5 999.26,676.3 1609,681 5.99,0.1 12.02,0.1 18,0.1 603.07,0 1171.07,-232.6 1601.25,-656.3 434.46,-427.8 676.3,-999.3 680.98,-1609 4.68,-609.7 -228.37,-1184.8 -656.21,-1619.2 l -10.09,9.9 10.09,-9.9 c -427.84,-434.5 -999.26,-676.3 -1608.99,-681 -6,-0.1 -12.02,-0.1 -18.01,-0.1"
         style="fill:#1c056d;fill-opacity:1;fill-rule:nonzero;stroke:none"
         id="path132" />
      <path
         d="m 4157.41,10041.4 -553.55,545.1 c -26.86,26.5 -27.19,69.7 -0.74,96.6 l 43.83,44.5 c 26.45,26.8 69.68,27.2 96.54,0.7 l 553.55,-545.1 c 26.87,-26.5 27.2,-69.7 0.74,-96.6 l -43.83,-44.5 c -26.45,-26.8 -69.68,-27.2 -96.54,-0.7"
         style="fill:#1c056d;fill-opacity:1;fill-rule:nonzero;stroke:none"
         id="path134" />
      <path
         d="m 23285,4477.7 c -74.7,584.5 144.5,1176.2 481.9,1659.2 337.5,483.1 787.1,874.9 1231.9,1261.4 -66,-299.3 -131.6,-652.8 -197.6,-952.1 -98.5,-446.5 -200.8,-902.6 -441.5,-1291.3 -240.7,-388.7 -617.5,-675.1 -1074.7,-677.2"
         style="fill:#d4dfff;fill-opacity:1;fill-rule:nonzero;stroke:none"
         id="path136" />
      <path
         d="m 23336.6,4305.3 c 748.8,420.3 1643.3,574.8 2489.7,430.2 -153.8,-139.9 -304.5,-288 -473.1,-409.5 -580.3,-417.8 -1402.5,-387 -2016.6,-20.7"
         style="fill:#d4dfff;fill-opacity:1;fill-rule:nonzero;stroke:none"
         id="path138" />
      <path
         d="m 22951.5,4536.1 c -182,312.1 -365.7,632.2 -436.5,986.5 -77,385.7 -13.9,788.9 116.2,1160.1 130.1,371.3 324.9,715.8 518.7,1058.1 73.3,-713.4 335.7,-1428.4 171.1,-2126.5 -37,-156.9 -95.8,-307.7 -154.5,-457.8 -85.6,-219.4 -129.3,-401 -215,-620.4"
         style="fill:#d4dfff;fill-opacity:1;fill-rule:nonzero;stroke:none"
         id="path140" />
      <path
         d="m 22660,3499.3 -16.1,11.8 c 4.6,6.3 459.2,625.9 632.2,971.1 173.5,346.2 1698.7,2895.5 1714.1,2921.2 l 17.2,-10.3 c -15.4,-25.7 -1540.2,-2574.3 -1713.5,-2919.9 -173.7,-346.6 -629.3,-967.7 -633.9,-973.9"
         style="fill:#8c9ef4;fill-opacity:1;fill-rule:nonzero;stroke:none"
         id="path142" />
      <path
         d="m 23153.5,4233.4 -11.7,16.2 c 212.2,152.5 2582.3,481.8 2683.1,495.8 l 2.8,-19.8 c -24.7,-3.4 -2466,-342.6 -2674.2,-492.2"
         style="fill:#8c9ef4;fill-opacity:1;fill-rule:nonzero;stroke:none"
         id="path144" />
      <path
         d="m 23020.7,4058.2 -79,476.3 c -144.9,646.7 -83.2,1484.9 -5.9,2074.1 83.7,638.1 203.2,1129.7 204.4,1134.6 l 19.5,-4.8 c -1.3,-4.9 -120.6,-495.6 -204.1,-1132.6 -77.1,-587.5 -138.7,-1423.1 5.7,-2067.5 l 79.2,-476.8 -19.8,-3.3"
         style="fill:#8c9ef4;fill-opacity:1;fill-rule:nonzero;stroke:none"
         id="path146" />
      <path
         d="m 25294.7,12459.6 h -7262.2 c -75.6,0 -136.9,61.3 -136.9,137 v 639.1 c 0,75.6 61.3,136.9 136.9,136.9 h 7262.2 c 75.6,0 136.9,-61.3 136.9,-136.9 v -639.1 c 0,-75.7 -61.3,-137 -136.9,-137"
         style="fill:#d4dfff;fill-opacity:1;fill-rule:nonzero;stroke:none"
         id="path148" />
      <path
         d="m 18229,13117 c -72.6,-37.5 -140.5,-83.7 -202.5,-137.1 -15,-12.9 -31.3,-26.2 -35.8,-46.6 -5.2,-23.8 9.1,-42 25.9,-56.7 31.1,-27.1 63.7,-52.6 97.5,-76.2 37.3,-26 76.1,-49.6 116.3,-70.8 14.3,-7.6 32.6,-3.6 41,10.8 8,13.5 3.6,33.4 -10.7,41 -40.8,21.6 -80.3,45.6 -118.1,72.1 -17.4,12.2 -34.5,24.9 -51,38.3 -8.1,6.5 -16.2,13.1 -24.1,19.9 -4.5,3.9 -9.1,7.7 -13.5,11.7 -1.7,1.6 -3.4,3.2 -5.1,4.8 l 0.3,-1.9 c -0.7,-2.2 -0.6,-4.2 0.4,-5.9 1.4,-0.5 2.4,0.4 3,2.7 4.5,2 9.3,8.3 13,11.5 7.9,6.8 15.9,13.6 24,20.2 16.5,13.5 33.5,26.3 51,38.6 37.9,26.6 77.6,50.5 118.7,71.8 14.4,7.5 18.6,27.6 10.8,41.1 -8.6,14.6 -26.7,18.2 -41.1,10.7"
         style="fill:#6880e4;fill-opacity:1;fill-rule:nonzero;stroke:none"
         id="path150" />
      <path
         d="m 18070.4,12893.3 c 134.5,0 269.1,0 403.6,0 38.6,0 38.7,60 0,60 -134.5,0 -269.1,0 -403.6,0 -38.6,0 -38.7,-60 0,-60"
         style="fill:#6880e4;fill-opacity:1;fill-rule:nonzero;stroke:none"
         id="path152" />
      <path
         d="m 19123.8,12729.6 c 72.6,37.6 140.5,83.7 202.5,137.1 15,12.9 31.3,26.2 35.8,46.6 5.2,23.8 -9.1,42 -25.9,56.7 -31.1,27.1 -63.7,52.6 -97.5,76.2 -37.3,26 -76.1,49.6 -116.3,70.8 -14.3,7.6 -32.6,3.7 -41,-10.7 -7.9,-13.6 -3.6,-33.5 10.7,-41.1 40.9,-21.5 80.3,-45.5 118.1,-72.1 17.4,-12.2 34.5,-24.9 51,-38.2 8.2,-6.6 16.2,-13.2 24.1,-20 4.5,-3.9 9.1,-7.7 13.5,-11.7 1.7,-1.5 3.4,-3.1 5.1,-4.8 l -0.3,1.9 c 0.7,2.2 0.6,4.2 -0.4,5.9 -1.4,0.5 -2.4,-0.4 -3,-2.7 -4.5,-1.9 -9.2,-8.2 -12.9,-11.4 -7.9,-6.9 -15.9,-13.6 -24,-20.2 -16.6,-13.5 -33.6,-26.4 -51.1,-38.6 -37.8,-26.7 -77.5,-50.6 -118.7,-71.9 -14.4,-7.4 -18.6,-27.6 -10.7,-41 8.5,-14.6 26.6,-18.3 41,-10.8"
         style="fill:#6880e4;fill-opacity:1;fill-rule:nonzero;stroke:none"
         id="path154" />
      <path
         d="m 19282.4,12953.3 c -134.5,0 -269,0 -403.6,0 -38.6,0 -38.7,-60 0,-60 134.6,0 269.1,0 403.6,0 38.6,0 38.7,60 0,60"
         style="fill:#6880e4;fill-opacity:1;fill-rule:nonzero;stroke:none"
         id="path156" />
      <path
         d="m 25145.7,12604 h -5372.2 c -54.8,0 -99.3,44.5 -99.3,99.3 v 392 c 0,54.8 44.5,99.3 99.3,99.3 h 5372.2 c 54.9,0 99.3,-44.5 99.3,-99.3 v -392 c 0,-54.8 -44.4,-99.3 -99.3,-99.3"
         style="fill:#ffffff;fill-opacity:1;fill-rule:nonzero;stroke:none"
         id="path158" />
      <path
         d="m 12402.3,8224.5 c -135.6,-280.2 -231.8,-578.1 -280.9,-885.4 -16,-100.1 -27.8,-204.6 -31.4,-307.5 -16,-457.5 140.3,-1141.1 140.3,-1141.1 h 2299.3 c 0,0 45,1509.1 -51.2,1917.8 -96.2,408.8 -216.4,757.7 -216.4,757.7 l -1739.2,-92.4 -120.5,-249.1"
         style="fill:#1c056d;fill-opacity:1;fill-rule:nonzero;stroke:none"
         id="path160" />
      <path
         d="m 12674.6,11507 -205.5,-221.5 469.3,-2854.5 1012.3,77.5 c 0,0 -225.5,2509.3 -279.3,2645.1 -53.7,135.8 -363.5,326.8 -363.5,326.8 l -633.3,26.6"
         style="fill:#ffffff;fill-opacity:1;fill-rule:nonzero;stroke:none"
         id="path162" />
      <path
         d="m 12674.6,11507 c 0,0 -816.4,-511.8 -845.3,-631.7 -28.8,-120 348.1,-1821.9 363.7,-2056.5 15.7,-234.7 -281.5,-1407.9 -281.5,-1407.9 0,0 1465.2,-226.8 1440.4,-187.7 -24.8,39.1 252.7,741 252.7,1095 0,323.9 -512.3,1613.9 -758.9,2216 -85.9,209.8 -137.1,432.2 -151.3,658.6 l -19.8,314.2"
         style="fill:#1b3d9e;fill-opacity:1;fill-rule:nonzero;stroke:none"
         id="path164" />
      <path
         d="m 12795.6,12930.8 c 83,97.8 386.2,205 630.9,159.3 138,-25.8 245.8,-134.2 275.6,-271.3 67.4,-310.5 201.5,-1043 -19.3,-1110 -98.4,-29.9 -214,-6.5 -325.2,41.9 -22.4,-188.9 -111.9,-619.1 -128.1,-676.7 -22.7,-80.8 -555,298.8 -554.9,433 0.1,129.7 251.8,593.2 251.8,593.2 -52.7,127.9 -246.3,694.6 -130.8,830.6"
         style="fill:#fe8e9c;fill-opacity:1;fill-rule:nonzero;stroke:none"
         id="path166" />
      <g
         id="g168">
        <g
           id="g170"
           clip-path="url(#clipPath174)">
          <path
             d="m 13357.6,11750.7 c 0,0 -145.5,99.3 -265.8,216.9 0,0 35.9,-412 279,-454.7 l -13.2,237.8"
             style="fill:#e57492;fill-opacity:1;fill-rule:nonzero;stroke:none"
             id="path176" />
          <path
             d="m 13661.5,12910.5 c 0,0 -27.3,-312.8 -207.5,-370.8 -180.3,-58 -150.2,18.5 -150.2,18.5 0,0 -180.3,-282.5 -254,-113.9 -73.7,168.5 0,0 0,0 l 323.2,653.3 c 0,0 206.6,-58.8 288.5,-187.1"
             style="fill:#e57492;fill-opacity:1;fill-rule:nonzero;stroke:none"
             id="path178" />
        </g>
      </g>
      <path
         d="m 13568.2,12539.7 c 0,0 156.9,-254 123.7,-295.1 -33.1,-41.1 -116.9,57.7 -142.5,51.3 -25.5,-6.5 -38.2,-47.4 -6.7,-52.1 31.5,-4.7 153.9,-65.1 166.6,-7.1 12.6,58 -10.3,101.8 -141.1,303"
         style="fill:#e57492;fill-opacity:1;fill-rule:nonzero;stroke:none"
         id="path180" />
      <path
         d="m 13722.9,12092.5 c 0,0 -42.4,-108.1 -165.2,-14 0,0 1.4,-90.3 85.9,-103.2 111.3,-16.9 79.3,117.2 79.3,117.2"
         style="fill:#ffffff;fill-opacity:1;fill-rule:nonzero;stroke:none"
         id="path182" />
      <path
         d="m 13897.1,13019 c -55.3,32.3 -129.1,32.7 -173.4,79.1 -53.3,55.8 -37.2,149.1 -75.8,215.9 -29,50 -86,78.7 -143.2,87.2 -57.5,8.6 -115.7,-0.3 -172.5,-9.5 -27.1,-4.4 -70.5,-7 -92.7,-28.8 -50.9,26.2 -106.1,38.3 -162.4,28.4 -230.4,-40.5 -635.1,-348.7 -566.6,-731.6 68.5,-382.9 415.9,-559.5 415.9,-559.5 l 22.3,140.5 c -117.4,25.7 -159.2,309.4 -83.2,313.3 75.9,3.9 107.7,-141.1 107.7,-141.1 -23,141.1 111.5,232.9 111.5,232.9 0,0 -85.3,-232.9 0,-232.9 85.3,0 265.7,347.7 265.7,347.7 0,0 -91.9,-282 19.7,-183.7 111.5,98.4 124.6,367.4 124.6,367.4 2.8,19.3 2.3,40.9 -1.2,63.9 16.3,-9.6 32.4,-19.4 47.8,-30.3 126.4,-89.3 198.2,-250.2 180.2,-403.9 98.2,26.9 193.9,83.9 239.5,175 45.5,91.2 24.2,218.7 -63.9,270"
         style="fill:#1b3d9e;fill-opacity:1;fill-rule:nonzero;stroke:none"
         id="path184" />
      <g
         id="g186">
        <g
           id="g188"
           clip-path="url(#clipPath192)">
          <path
             d="m 13239.5,13362.9 c 0,0 260.7,-117.9 254,-354.7 -6.7,-236.9 0,0 0,0 0,0 181,-326.9 228,-434.2 18.8,-42.9 35.8,-18.1 49.5,27.2 32.6,108 18.5,224.9 -36.3,323.6 -90.7,163.1 -264.9,411.9 -495.2,438.1"
             style="fill:#1c056d;fill-opacity:1;fill-rule:nonzero;stroke:none"
             id="path194" />
        </g>
      </g>
      <path
         d="m 13313.1,11477.3 c 0,0 687.2,-378.1 800.3,-555.5 113.1,-177.5 276,-1842.7 300.1,-2005.6 24.1,-162.9 470.6,-1396.3 416.3,-1411.8 -54.3,-15.6 -790.4,-229.3 -856.7,-223.3 -66.4,6.1 -348.9,979.4 -368.5,1110.2 -14,93 35.2,1547.4 -46.9,2419.4 -33.3,353.9 -244.6,666.6 -244.6,666.6"
         style="fill:#1b3d9e;fill-opacity:1;fill-rule:nonzero;stroke:none"
         id="path196" />
      <path
         d="m 12551.3,8519.1 763.2,-21.5 v -89.5 l -763.2,34.2 v 76.8"
         style="fill:#1c056d;fill-opacity:1;fill-rule:nonzero;stroke:none"
         id="path198" />
      <path
         d="m 13834.2,8543.2 507.3,201.6 27.4,-74 -508.2,-202.9 -26.5,75.3"
         style="fill:#1c056d;fill-opacity:1;fill-rule:nonzero;stroke:none"
         id="path200" />
      <path
         d="m 13314.5,8408.1 c 0,0 -64.1,-729.7 -104.6,-741.9 -40.5,-12.2 -685.2,-3.1 -712.7,55 -27.5,58 54.1,721.1 54.1,721.1 0,0 -119.4,-712 -82.2,-763.9 37.3,-51.9 733.9,-91.7 767.6,-64.2 33.6,27.5 77.8,793.9 77.8,793.9"
         style="fill:#1c056d;fill-opacity:1;fill-rule:nonzero;stroke:none"
         id="path202" />
      <path
         d="m 13860.7,8467.9 c 0,0 159.1,-688.1 185.1,-692.5 25.9,-4.3 484.9,197 500.1,248.4 15.1,51.3 -177,647 -177,647 0,0 211.7,-629.2 208.9,-659.9 -2.8,-30.7 -245.7,-178.6 -343.4,-212.1 -97.6,-33.5 -181.4,-78.2 -200.9,-58.6 -19.6,19.5 -172.8,727.7 -172.8,727.7"
         style="fill:#1c056d;fill-opacity:1;fill-rule:nonzero;stroke:none"
         id="path204" />
      <path
         d="m 12521.4,11408.8 c 0,0 -325.5,-915.8 -179.5,-1096.2 146,-180.3 429.4,-133.1 429.4,-133.1 0,0 -189.1,-309.1 -96.7,-425.1 92.4,-115.9 698.1,-586.6 698.1,-586.6 0,0 -524.1,1432.5 -571.4,1535.6 -47.2,103 -126.7,803.6 -126.7,803.6 l -153.2,-98.2"
         style="fill:#6880e4;fill-opacity:1;fill-rule:nonzero;stroke:none"
         id="path206" />
      <path
         d="m 13313.1,11477.3 c 0,0 230.1,-370.5 253.3,-767.4 23.2,-396.8 38.2,-1499.1 38.2,-1499.1 0,0 421.2,806.3 346.1,920.2 -75.2,113.9 -230,206.4 -230,206.4 0,0 259.5,253.7 230,381.2 -29.6,127.6 -238.4,521.1 -238.4,521.1 0,0 -337.7,218 -399.2,237.6"
         style="fill:#6880e4;fill-opacity:1;fill-rule:nonzero;stroke:none"
         id="path208" />
      <path
         d="m 13229.5,11074 c 0,0 -159.3,-283.9 -211,-271.9 -51.8,11.9 -313.2,454 -313.2,454 l -30.7,250.9 c 0,0 367.8,-427.7 554.9,-433"
         style="fill:#fc476a;fill-opacity:1;fill-rule:nonzero;stroke:none"
         id="path210" />
      <path
         d="m 13229.5,11074 c 0,0 145.9,-193.1 193.3,-186 47.5,7.1 33.1,293.1 33.1,293.1 0,0 -103.1,252.4 -142.8,296.2 0,0 -57.1,-323 -83.6,-403.3"
         style="fill:#fc476a;fill-opacity:1;fill-rule:nonzero;stroke:none"
         id="path212" />
      <path
         d="m 14113.4,10921.8 c 0,0 1154.1,-1327.6 1314.6,-1333.4 160.5,-5.8 1225.5,1078.3 1225.5,1078.3 l 417,-390.1 c 0,0 -1232.2,-1783.7 -1642.5,-1710.6 -410.3,73 -1059.1,738.1 -1059.1,738.1 l -255.5,1617.7"
         style="fill:#1b3d9e;fill-opacity:1;fill-rule:nonzero;stroke:none"
         id="path214" />
      <path
         d="m 14368.9,9304.1 c 0,0 -79.4,1031.7 -149.6,1211.8 0,0 381.6,-912.6 358.5,-1410 l -208.9,198.2"
         style="fill:#1c056d;fill-opacity:1;fill-rule:nonzero;stroke:none"
         id="path216" />
      <path
         d="m 16653.5,10666.7 c 0,0 -165,-200.5 -123.6,-278.2 41.5,-77.6 319.5,-419.5 319.5,-419.5 l 221.1,307.6 -417,390.1"
         style="fill:#ffffff;fill-opacity:1;fill-rule:nonzero;stroke:none"
         id="path218" />
      <path
         d="m 16918.9,10256.8 c 0,-33.7 -27.3,-61 -61,-61 -33.7,0 -61,27.3 -61,61 0,33.7 27.3,61 61,61 33.7,0 61,-27.3 61,-61"
         style="fill:#1b3d9e;fill-opacity:1;fill-rule:nonzero;stroke:none"
         id="path220" />
      <path
         d="m 12115.9,9730.6 c 0,0 -415.4,-467.9 -380.7,-624.7 34.8,-156.8 1041.6,-831.5 1041.6,-831.5 l -225.5,-496.3 c 0,0 -1726.1,813.8 -1797.3,1224.4 -80.5,464.4 1098.7,1911.2 1098.7,1911.2 l 263.2,-1183.1"
         style="fill:#1b3d9e;fill-opacity:1;fill-rule:nonzero;stroke:none"
         id="path222" />
      <path
         d="m 12043,9644.7 c 0,0 183.1,196.4 110.7,482.1 0,0 232.5,-541.5 -54.6,-767.4 l -56.1,285.3"
         style="fill:#1c056d;fill-opacity:1;fill-rule:nonzero;stroke:none"
         id="path224" />
      <path
         d="m 12776.8,8274.4 -225.5,-496.3 -493.1,248.9 -31.4,-137.5 c 0,0 545.5,-305.1 562.5,-300.2 17,4.8 187.5,685.1 187.5,685.1"
         style="fill:#1c056d;fill-opacity:1;fill-rule:nonzero;stroke:none"
         id="path226" />
      <path
         d="m 12776.8,8274.4 c 0,0 -156.4,59.9 -209.2,56.2 -52.9,-3.8 -325,-396.7 -325,-396.7 l 308.7,-155.8 225.5,496.3"
         style="fill:#ffffff;fill-opacity:1;fill-rule:nonzero;stroke:none"
         id="path228" />
      <path
         d="m 12542.3,7930.5 c 0,-28.6 -23.1,-51.7 -51.7,-51.7 -28.5,0 -51.6,23.1 -51.6,51.7 0,28.5 23.1,51.6 51.6,51.6 28.6,0 51.7,-23.1 51.7,-51.6"
         style="fill:#1b3d9e;fill-opacity:1;fill-rule:nonzero;stroke:none"
         id="path230" />
      <path
         d="m 12716.2,7613.4 c 0,0 603.8,930.2 972.5,1096.1 0,0 338,-450 691.7,-507 0,0 -931.7,-1253.8 -1066.1,-1249.2 0,0 -439.9,592.4 -598.1,660.1"
         style="fill:#d4dfff;fill-opacity:1;fill-rule:nonzero;stroke:none"
         id="path232" />
      <g
         id="g234">
        <g
           id="g236"
           clip-path="url(#clipPath240)">
          <path
             d="m 13315,6953.3 c -0.2,0 -0.5,0 -0.7,0 0,0 -439.9,592.4 -598.1,660.1 0,0 67.9,104.6 172.1,250 189.3,-36 669.9,-122.8 905.4,-122.8 6.9,0 13.6,0.1 20,0.2 90.7,2.1 166.3,8.8 227.2,16.9 -3.3,-4.3 -6.7,-8.6 -10,-12.9 -55.5,-70.9 -114,-145.1 -172.9,-218.2 -236.7,-294.3 -478.2,-573.3 -543,-573.3"
             style="fill:#a5b5f3;fill-opacity:1;fill-rule:nonzero;stroke:none"
             id="path242" />
        </g>
      </g>
      <path
         d="m 13559.5,7792.8 c 43,7.1 88.4,45.3 83.6,62.1 -4.8,16.7 -391.8,69.3 -411.5,75.6 -19.7,6.3 -202.5,105.9 -202.5,105.9 0,0 180.8,214.5 176.8,238 -6.4,38 -338.8,-98.8 -360.3,-96.4 -21.5,2.3 -93.5,42.1 -93.5,42.1 l -178,-391.9 c 0,0 234.4,-146.1 348.2,-203.4 v 0 c 0,0 341.1,-195.6 369.6,-203.2 28.5,-7.6 24.7,51.3 0,74.1 -9.8,9.1 -50.1,34.1 -94.9,61 82,-13.4 156.7,-23.1 173.8,-22 35.8,2.4 78.8,38.3 88.4,54.5 8,13.7 -258,64.2 -321,75.3 67.6,-8.1 363.4,-24.5 387.8,-22.2 26.3,2.3 100.4,43 98,64.5 -2.4,21.5 -489.7,93.1 -489.7,93.1 0,0 19.1,-2.4 63.5,-7.1 44.4,-4.8 318.7,-7.2 361.7,0"
         style="fill:#fe8e9c;fill-opacity:1;fill-rule:nonzero;stroke:none"
         id="path244" />
      <g
         id="g246">
        <g
           id="g248"
           clip-path="url(#clipPath252)">
          <path
             d="m 13138.2,7664.5 -69,-1.2 c 0,0 328.2,-75.9 390,-74.1 61.7,1.8 0,0 0,0 0,0 -39.9,50.4 -321,75.3"
             style="fill:#e57492;fill-opacity:1;fill-rule:nonzero;stroke:none"
             id="path254" />
          <path
             d="m 13197,7556.7 -129.8,37.3 c 0,0 220.5,-120.3 238,-118 17.6,2.3 -20.3,45 -108.2,80.7"
             style="fill:#e57492;fill-opacity:1;fill-rule:nonzero;stroke:none"
             id="path256" />
          <path
             d="m 13205.9,8274.4 c 0,0 -281.5,-187.9 -262.4,-201.2 19.1,-13.4 186.4,-91.1 186.4,-91.1 0,0 -47.2,49.1 -30,85.4 17.1,36.2 145.3,166 106,206.9"
             style="fill:#e57492;fill-opacity:1;fill-rule:nonzero;stroke:none"
             id="path258" />
        </g>
      </g>
      <path
         d="m 17229.6,10415.6 c -25.6,0 -46.3,20.7 -46.2,46.2 0.5,355.7 7,2642.4 90.8,2586 83.8,-56.4 13.1,-2246 1.5,-2587.6 -0.8,-24.9 -21.2,-44.6 -46.1,-44.6"
         style="fill:#fc476a;fill-opacity:1;fill-rule:nonzero;stroke:none"
         id="path260" />
      <path
         d="m 16713.2,10610.9 c 0,0 84.4,69.1 102.9,82.9 18.4,13.8 142.9,202.3 179.8,228 36.9,25.6 381.8,88.5 378.3,67.1 -3.6,-21.4 -27,-51.1 -40.8,-67.1 -13.9,-16.1 -150,-90.2 -150,-90.2 v -328.9 l -139.7,-30.1 -75.1,-100.7 -255.4,239"
         style="fill:#fe8e9c;fill-opacity:1;fill-rule:nonzero;stroke:none"
         id="path262" />
      <g
         id="g264">
        <g
           id="g266"
           clip-path="url(#clipPath270)">
          <path
             d="m 17183.4,10831.6 c 0,0 -61.5,-93.8 -68.6,-149 -7.1,-55.2 0,-211.2 0,-211.2 l 103.9,28.4 c 0,0 -2.2,309.1 -35.3,331.8"
             style="fill:#e57492;fill-opacity:1;fill-rule:nonzero;stroke:none"
             id="path272" />
        </g>
      </g>
      <path
         d="m 17460.3,10758 c 3.2,1.9 5.4,3.5 6.1,4.7 31.2,50.9 -32.1,77.4 -46.5,75 -9.2,-1.5 -29.2,-5.4 -42.4,-8.1 41.1,35.2 72.6,65.9 74.8,72.8 8.4,26.8 -43.2,90.8 -78.1,65.5 -11.8,-8.6 -40.8,-46.1 -40.8,-46.1 0,0 -127.7,-87.9 -156.9,-169 -17,-12.6 -30.8,-26.7 -38.5,-42.5 -16.9,-34.8 43.1,-32.2 116.3,-16.9 -39.6,-24.9 -76.4,-56.1 -87.1,-90.3 -7.9,-25.1 16.8,-27.8 55.3,-18.9 -15,-10.8 -27.2,-23.1 -34.2,-36.8 -35.8,-70.5 278.9,32.7 288.8,49.9 9.8,17.2 8,55.7 -31.7,60.7 -13.1,1.7 -50.3,-8.7 -50.3,-8.7 0,0 -2.4,-0.4 -6.5,-1.3 51.6,24.8 92.6,48.3 95.7,55.2 9.5,21.6 -6.3,42.2 -24,54.8"
         style="fill:#fe8e9c;fill-opacity:1;fill-rule:nonzero;stroke:none"
         id="path274" />
      <g
         id="g276">
        <g
           id="g278"
           clip-path="url(#clipPath282)">
          <path
             d="m 17176.5,10752.8 c 0,0 33.4,-16.4 63.3,-4.4 29.9,12 144.7,87.3 144.7,87.3 0,0 -123.9,-100.1 -156.4,-105.3 -32.4,-5.1 -60.5,15.4 -60.5,15.4 l 8.9,7"
             style="fill:#e57492;fill-opacity:1;fill-rule:nonzero;stroke:none"
             id="path284" />
          <path
             d="m 17254.3,10693.4 c 0,0 178.9,52.1 206,64.6 27,12.6 0,0 0,0 l 11.3,-9.6 c 0,0 -211.8,-87.3 -256.3,-76.5 l 39,21.5"
             style="fill:#e57492;fill-opacity:1;fill-rule:nonzero;stroke:none"
             id="path286" />
          <path
             d="m 17222.5,10584.2 c 0,0 148,60.4 179,66.8 31,6.4 0,0 0,0 0,0 -218.1,-94.7 -218.1,-121.5 0,0 -8.2,26.8 39.1,54.7"
             style="fill:#e57492;fill-opacity:1;fill-rule:nonzero;stroke:none"
             id="path288" />
        </g>
      </g>
      <path
         d="m 19071.9,1617.3 c 0,-193.1 -1197.5,-349.7 -2674.8,-349.7 -1477.2,0 -2674.8,156.6 -2674.8,349.7 0,193.2 1197.6,349.8 2674.8,349.8 1477.3,0 2674.8,-156.6 2674.8,-349.8"
         style="fill:#f6f9ff;fill-opacity:1;fill-rule:nonzero;stroke:none"
         id="path290" />
      <path
         d="m 18134.5,4944.5 c 0,0 -634.3,-156.3 -778.1,-277.9 -199.2,-168.3 -811,-2389.6 -811,-2389.6 0,0 286.1,-93.2 399.2,-26.6 113.1,66.5 805,1243.1 805,1679.4 l 384.9,30.9 c 0,0 73.9,364.9 0,983.8"
         style="fill:#fe8e9c;fill-opacity:1;fill-rule:nonzero;stroke:none"
         id="path292" />
      <g
         id="g294">
        <g
           id="g296"
           clip-path="url(#clipPath300)">
          <path
             d="m 16944.6,2250.4 c 0,0 575.7,2173.4 611.6,2342.6 42.9,202.5 459.7,255.2 459.7,255.2 0,0 129.5,-737 104.8,-788.7 -24.7,-51.6 -338.5,-218 -338.9,-263.2 -0.4,-45.2 -493.9,-1552.4 -586.4,-1569.9 -92.5,-17.5 -250.8,24 -250.8,24"
             style="fill:#e57492;fill-opacity:1;fill-rule:nonzero;stroke:none"
             id="path302" />
        </g>
      </g>
      <path
         d="m 18836.7,5252.4 c 0,0 -983.7,-273.4 -983.7,-305.8 0,-32.5 347.4,-1033.2 381.8,-1059.7 34.3,-26.5 1039.4,-37.3 1304.2,11.3 264.8,48.6 518.8,1278.7 497.2,1298.6 -21.6,20 -1199.5,55.6 -1199.5,55.6"
         style="fill:#1b3d9e;fill-opacity:1;fill-rule:nonzero;stroke:none"
         id="path304" />
      <path
         d="m 20850.4,5196.8 c 0,0 394,-1197.2 -461.2,-1363.4 -855.2,-166.1 -1805.3,-37.1 -1805.3,-37.1 l -134.8,1220.9 1217.1,139.2 1184.2,40.4"
         style="fill:#1b3d9e;fill-opacity:1;fill-rule:nonzero;stroke:none"
         id="path306" />
      <g
         id="g308">
        <g
           id="g310"
           clip-path="url(#clipPath314)">
          <path
             d="m 19340,5196.8 c 0,0 373.7,-279.7 821.4,-281.3 447.8,-1.5 834.7,97.2 834.7,97.2 l -129.8,314.8 c 0,0 -1707,-128.8 -1652.8,-172.7"
             style="fill:#1c056d;fill-opacity:1;fill-rule:nonzero;stroke:none"
             id="path316" />
          <path
             d="m 18634.8,5084.5 -1.2,14.9 29.9,2.4 1.2,-14.8 -29.9,-2.5"
             style="fill:#1c056d;fill-opacity:1;fill-rule:nonzero;stroke:none"
             id="path318" />
          <path
             d="m 18640.2,5024 c -1,11.3 -1.9,21.4 -2.7,30.3 l 29.9,2.7 c 0.8,-8.9 1.7,-19 2.7,-30.2 z m 5.8,-60.4 -2.9,30.2 29.9,2.9 2.9,-30.2 z m 6.2,-60.4 c -1.1,10.4 -2.1,20.4 -3.1,30.2 l 29.8,3 c 1,-9.7 2,-19.7 3.1,-30.1 z m 6.5,-60.3 -3.3,30.1 29.8,3.2 3.3,-30 z m 6.8,-60.3 -3.5,30.2 29.8,3.3 3.5,-30 z m 7.1,-60.2 -3.6,30.1 29.8,3.5 3.6,-30 z m 7.5,-60.2 c -1.3,10.1 -2.6,20.2 -3.8,30.1 l 29.8,3.7 c 1.2,-9.9 2.5,-19.9 3.7,-30 z m 7.8,-60.1 -3.9,30 29.7,3.9 4,-29.9 z m 8.3,-60.1 -4.2,30.1 29.7,4 4.2,-29.9 z m 8.6,-60 c -1.4,10 -2.9,20 -4.3,30 l 29.6,4.3 c 1.5,-10 2.9,-19.9 4.4,-29.9 z m 9.1,-59.9 -4.6,29.9 29.7,4.5 4.6,-29.8 z m 9.7,-60 c -1.7,10 -3.3,20 -4.9,30 l 29.6,4.8 c 1.6,-10 3.2,-19.9 4.9,-29.9 z m 10.2,-59.8 c -1.8,10 -3.5,19.9 -5.2,29.9 l 29.6,5.1 c 1.7,-10 3.4,-19.9 5.1,-29.8 z m 10.8,-59.7 c -1.9,9.9 -3.7,19.9 -5.5,29.9 l 29.5,5.3 c 1.8,-9.9 3.6,-19.8 5.5,-29.7 z m 11.5,-59.6 c -2,9.9 -3.9,19.8 -5.9,29.8 l 29.5,5.7 c 1.9,-10 3.9,-19.8 5.8,-29.7 z m 12.4,-59.5 c -2.2,9.8 -4.3,19.7 -6.3,29.7 l 29.3,6.1 c 2.1,-9.9 4.2,-19.7 6.3,-29.5 z m 13.3,-59.4 c -2.3,9.8 -4.6,19.7 -6.8,29.7 l 29.3,6.6 c 2.2,-9.9 4.4,-19.7 6.7,-29.4 z m 14.5,-59.1 c -2.5,9.7 -5,19.6 -7.4,29.6 l 29.1,7.1 c 2.4,-9.8 4.9,-19.6 7.3,-29.2 z m 16,-58.8 c -2.8,9.6 -5.5,19.4 -8.2,29.4 l 28.9,7.8 c 2.7,-9.8 5.4,-19.4 8.1,-28.9 z m 17.8,-58.4 c -3.1,9.5 -6.2,19.2 -9.2,29.1 l 28.7,8.8 c 3,-9.8 6,-19.3 9,-28.6 z m 20.4,-57.8 c -3.6,9.3 -7.1,18.9 -10.6,28.8 l 28.3,10 c 3.4,-9.7 6.9,-19 10.3,-28.1 z m 24.2,-56.8 c -4.2,9 -8.5,18.5 -12.7,28.2 l 27.7,11.7 c 3.9,-9.4 8,-18.4 12.1,-27 z m 30.6,-54.6 c -5.4,8.1 -10.9,17.1 -16.3,26.9 l 26.2,14.5 c 5,-9 10.1,-17.3 15,-24.7 l -24.9,-16.7"
             style="fill:#1c056d;fill-opacity:1;fill-rule:nonzero;stroke:none"
             id="path320" />
          <path
             d="m 20788.9,4406.8 c -2.2,0 -4.5,0.3 -6.7,0.9 -173.4,48.7 -295.8,190.6 -353.8,410.3 -43,163 -35.8,309.5 -35.5,315.7 0.7,13.7 12.3,24 26.3,23.6 13.8,-0.7 24.3,-12.5 23.6,-26.3 -0.3,-5.6 -25.1,-569 352.9,-675.1 13.3,-3.8 21,-17.6 17.3,-30.8 -3.1,-11.1 -13.2,-18.3 -24.1,-18.3"
             style="fill:#1c056d;fill-opacity:1;fill-rule:nonzero;stroke:none"
             id="path322" />
        </g>
      </g>
      <path
         d="m 21637.4,6634.8 c 0,0 -129.8,719.4 -268.1,943.2 -138.3,223.8 -792.3,502.7 -792.3,502.7 0,0 -630.3,87.6 -950.2,-82 -374.1,-198.3 -879.6,-998.6 -879.6,-998.6 l 399.7,-202.8 -461.4,-1499.8 c 0,0 405.8,-129.1 784.7,-195 378.9,-66 1502.5,65.9 1567.1,58.4 64.5,-7.5 -89.9,1401.9 -89.9,1401.9 110.7,-18.5 690,72 690,72"
         style="fill:#fc476a;fill-opacity:1;fill-rule:nonzero;stroke:none"
         id="path324" />
      <g
         id="g326">
        <g
           id="g328"
           clip-path="url(#clipPath332)">
          <path
             d="m 21227.8,6579 c 0,0 -251.1,100.4 -281.5,184.2 -30.3,83.9 -177,609.8 -177,609.8 0,0 35.1,-1131.4 227.4,-1296.5 192.4,-165 0,0 0,0 0,0 77.7,446.8 231.1,502.5"
             style="fill:#d40221;fill-opacity:1;fill-rule:nonzero;stroke:none"
             id="path334" />
          <path
             d="m 18978.5,6882.7 c 0,0 158.1,18.1 213.8,116.5 55.7,98.4 237.4,426.4 237.4,426.4 l -390.4,-978.1 c 0,0 26,270.6 16.6,303.4 -9.4,32.8 -77.4,131.8 -77.4,131.8"
             style="fill:#d40221;fill-opacity:1;fill-rule:nonzero;stroke:none"
             id="path336" />
        </g>
      </g>
      <path
         d="m 19568.6,9670.8 c 0,0 -255.3,-81.6 -283.7,-184.5 -28.4,-102.8 60.8,-467.3 60.8,-467.3 l 301.1,325.9 -78.2,325.9"
         style="fill:#f9c438;fill-opacity:1;fill-rule:nonzero;stroke:none"
         id="path338" />
      <g
         id="g340">
        <g
           id="g342"
           clip-path="url(#clipPath346)">
          <path
             d="m 19407.2,9618 c 0,0 -92.1,-115.2 -70.8,-225.4 21.4,-110.3 72.5,-120.2 72.5,-120.2 l 121.8,177.8 -67.6,209 -55.9,-41.2"
             style="fill:#f6ab36;fill-opacity:1;fill-rule:nonzero;stroke:none"
             id="path348" />
        </g>
      </g>
      <path
         d="m 20587,8080.7 -217.7,94.4 -0.4,1.2 c -30.1,70.3 -310.7,534.2 -310.7,534.2 41.4,108.6 191.6,589 91.6,700.8 -71.9,80.3 -328.6,163.5 -533.2,120 -115.4,-24.6 -157.8,-137.1 -226,-233.4 -209.6,-296.4 -146.6,-881.6 40.6,-933.1 83.3,-22.9 180,-0.7 272.3,42.4 10.9,-74.7 35.5,-194.3 60,-304.8 l -109,-92.3 c 0,0 121.4,-171.4 362.6,-156.7 241.2,14.6 569.9,227.3 569.9,227.3"
         style="fill:#fe8e9c;fill-opacity:1;fill-rule:nonzero;stroke:none"
         id="path350" />
      <g
         id="g352">
        <g
           id="g354"
           clip-path="url(#clipPath358)">
          <path
             d="m 19371.7,9417.5 c 0,0 -193.7,-271.6 198.6,-250.8 392.2,20.7 340.3,-57.4 339,-68.1 -1.4,-10.7 62.4,96.4 44.6,143.5 -17.8,47.2 -582.2,175.4 -582.2,175.4"
             style="fill:#e57492;fill-opacity:1;fill-rule:nonzero;stroke:none"
             id="path360" />
        </g>
      </g>
      <path
         d="m 19494.1,9205.6 c 0,0 -135.3,-301.7 -86.1,-334 49.2,-32.3 171.1,37.5 171.1,37.5 -1.7,-21.6 -1.4,-36.6 -21.9,-43.8 -59.1,-20.8 -153.5,-56.8 -178,-9.7 -43.1,83 114.9,350 114.9,350"
         style="fill:#e57492;fill-opacity:1;fill-rule:nonzero;stroke:none"
         id="path362" />
      <path
         d="m 19703.5,8407.2 c 0,0 185.1,128.5 245.5,205.7 0,0 -49.6,-262.3 -222.1,-337.3 l -23.4,131.6"
         style="fill:#e57492;fill-opacity:1;fill-rule:nonzero;stroke:none"
         id="path364" />
      <path
         d="m 19394.1,8667.2 c 0,0 75.8,-62.1 131.9,-8 0,0 8.2,-64.1 -75.8,-76.1 -84.1,-12 -56.1,84.1 -56.1,84.1"
         style="fill:#ffffff;fill-opacity:1;fill-rule:nonzero;stroke:none"
         id="path366" />
      <path
         d="m 19449.5,9623 c 0,0 -143.8,-378.5 163.9,-394.5 307.7,-16 310.9,-51.3 301.3,-96.1 -9.6,-44.9 -19.2,-176 -19.2,-176 0,0 63.4,107 94,93.9 30.5,-13.1 83,-115.8 59,-152.9 -24.1,-37.2 -68.3,-78 -74.9,-80.8 -6.5,-2.8 84.6,-106.1 84.6,-106.1 0,0 97.3,12 165.1,88.5 67.7,76.5 187.3,388.4 74.3,641.5 -155.4,348 -520.8,315.2 -630.4,317.4 -109.7,2.2 -217.7,-134.9 -217.7,-134.9"
         style="fill:#f9c438;fill-opacity:1;fill-rule:nonzero;stroke:none"
         id="path368" />
      <path
         d="m 19690.9,9234.5 c -72.6,0 -131.7,-59.1 -131.7,-131.8 0,-72.6 59.1,-131.8 131.7,-131.8 72.7,0 131.8,59.2 131.8,131.8 0,72.7 -59.1,131.8 -131.8,131.8 z m 0,-281.5 c -82.5,0 -149.6,67.2 -149.6,149.7 0,82.6 67.1,149.7 149.6,149.7 82.6,0 149.7,-67.1 149.7,-149.7 0,-82.5 -67.1,-149.7 -149.7,-149.7"
         style="fill:#1c056d;fill-opacity:1;fill-rule:nonzero;stroke:none"
         id="path370" />
      <path
         d="m 19371.5,9317.1 c -72.7,0 -131.8,-59.1 -131.8,-131.8 0,-72.7 59.1,-131.8 131.8,-131.8 72.7,0 131.8,59.1 131.8,131.8 0,72.7 -59.1,131.8 -131.8,131.8 z m 0,-281.5 c -82.6,0 -149.7,67.2 -149.7,149.7 0,82.5 67.1,149.7 149.7,149.7 82.5,0 149.7,-67.2 149.7,-149.7 0,-82.5 -67.2,-149.7 -149.7,-149.7"
         style="fill:#1c056d;fill-opacity:1;fill-rule:nonzero;stroke:none"
         id="path372" />
      <path
         d="m 19552.6,9128.3 -47.5,10.1 3.7,17.5 47.5,-10.1 -3.7,-17.5"
         style="fill:#1c056d;fill-opacity:1;fill-rule:nonzero;stroke:none"
         id="path374" />
      <path
         d="m 19960.6,9039.5 h -0.4 l -137.4,6 c -4.9,0.2 -8.8,4.4 -8.6,9.3 0.3,4.9 4.5,8.9 9.4,8.5 l 137.4,-5.9 c 4.9,-0.3 8.7,-4.4 8.5,-9.4 -0.2,-4.8 -4.2,-8.5 -8.9,-8.5"
         style="fill:#1c056d;fill-opacity:1;fill-rule:nonzero;stroke:none"
         id="path376" />
      <path
         d="m 18576.4,3864.4 c 0,0 -267.9,1135.8 -127.3,1152.8 140.6,17 866.4,115.1 866.4,115.1 0,0 -1030.4,-33.4 -1058.1,-107.3 -27.6,-73.8 178.5,-1155.1 178.5,-1155.1 l 140.5,-5.5"
         style="fill:#1c056d;fill-opacity:1;fill-rule:nonzero;stroke:none"
         id="path378" />
      <path
         d="m 18409,4848.2 c 0,0 -550.2,-19.6 -650,-179.3 -99.8,-159.7 -771.7,-2488.2 -771.7,-2488.2 0,0 286,-93.2 399.1,-26.6 113.1,66.5 805.1,1243.1 805.1,1679.3 l 384.9,31 c 0,0 -93.5,364.9 -167.4,983.8"
         style="fill:#fe8e9c;fill-opacity:1;fill-rule:nonzero;stroke:none"
         id="path380" />
      <g
         id="g382">
        <g
           id="g384"
           clip-path="url(#clipPath388)">
          <path
             d="m 18353.9,4892.6 c 0,0 -273.6,-692.7 14.7,-1096.3 l 454.3,37.1 -246.5,1088.5 -222.5,-29.3"
             style="fill:#e57492;fill-opacity:1;fill-rule:nonzero;stroke:none"
             id="path390" />
        </g>
      </g>
      <path
         d="m 16515.8,2280.2 c 0,0 343.3,-123 444.9,19.5 0,0 120.5,-150.7 111.7,-261.4 -8.9,-110.8 -28.1,-338.1 -77,-387.1 l -1440.8,-33.9 c -34.4,0 -60.1,31.4 -53.6,65.1 14.5,75.9 46,198.1 104.8,254 88.6,84.1 910,343.8 910,343.8"
         style="fill:#1b3d9e;fill-opacity:1;fill-rule:nonzero;stroke:none"
         id="path392" />
      <g
         id="g394">
        <g
           id="g396"
           clip-path="url(#clipPath400)">
          <path
             d="m 15873,1624.8 c 2.3,71.1 9.9,196.5 36.2,220.4 37.1,33.7 898.4,354.9 898.4,354.9 0,0 -31,-438.9 -69.5,-554.9 l -865.1,-20.4"
             style="fill:#1b278b;fill-opacity:1;fill-rule:nonzero;stroke:none"
             id="path402" />
          <path
             d="m 15462.6,1677.1 c -5.3,0 -9.7,4.1 -10,9.4 -0.4,5.5 3.8,10.3 9.3,10.6 l 1661.1,102.2 c 5.7,0.3 10.2,-3.8 10.6,-9.4 0.3,-5.5 -3.9,-10.2 -9.4,-10.6 l -1661,-102.2 h -0.6"
             style="fill:#1c056d;fill-opacity:1;fill-rule:nonzero;stroke:none"
             id="path404" />
        </g>
      </g>
      <path
         d="m 15605.8,1936.4 c 0,0 95.4,-49.7 144.8,-47.5 49.5,2.3 1015.8,323.6 988.8,343.9 -27,20.2 -158.6,135.1 -209,139.3 -50.3,4.1 -934.6,-397.3 -924.6,-435.7"
         style="fill:#1c056d;fill-opacity:1;fill-rule:nonzero;stroke:none"
         id="path406" />
      <path
         d="m 16336.1,2299.7 c 0,0 137,-49.4 209,-169.2 l -81.7,-30.2 c 0,0 -120.9,136.7 -214.3,161.8 l 87,37.6"
         style="fill:#1b3d9e;fill-opacity:1;fill-rule:nonzero;stroke:none"
         id="path408" />
      <path
         d="m 16137.7,2212.3 c 0,0 136.9,-49.4 209,-169.2 l -81.8,-30.3 c 0,0 -120.9,136.8 -214.2,161.9 l 87,37.6"
         style="fill:#1b3d9e;fill-opacity:1;fill-rule:nonzero;stroke:none"
         id="path410" />
      <path
         d="m 15891.3,2097.3 c 0,0 137.7,-54.2 209.7,-174 l -81.8,-30.2 c 0,0 -120.9,136.7 -214.2,161.8 l 86.3,42.4"
         style="fill:#1b3d9e;fill-opacity:1;fill-rule:nonzero;stroke:none"
         id="path412" />
      <path
         d="m 16987.3,2180.7 c 0,0 343.3,-123.1 444.9,19.4 0,0 120.5,-150.6 111.6,-261.4 -8.8,-110.7 -28,-338.1 -76.9,-387 l -1440.8,-33.9 c -34.4,0 -60.1,31.3 -53.6,65.1 14.5,75.9 46,198.1 104.8,253.9 88.6,84.2 910,343.9 910,343.9"
         style="fill:#1b3d9e;fill-opacity:1;fill-rule:nonzero;stroke:none"
         id="path414" />
      <g
         id="g416">
        <g
           id="g418"
           clip-path="url(#clipPath422)">
          <path
             d="m 15935.3,1568.5 c -5.3,0 -9.7,4.2 -10,9.6 -0.2,5.5 4.1,10.2 9.6,10.4 63.2,2.6 1546.9,64.6 1596,62.1 5.5,-0.3 9.7,-5 9.4,-10.5 -0.3,-5.5 -4.8,-9.7 -10.5,-9.5 -48.1,2.4 -1578.6,-61.4 -1594,-62.1 h -0.5"
             style="fill:#1c056d;fill-opacity:1;fill-rule:nonzero;stroke:none"
             id="path424" />
        </g>
      </g>
      <path
         d="m 16077.3,1836.8 c 0,0 95.4,-49.7 144.8,-47.4 49.4,2.2 1015.7,323.6 988.8,343.8 -27,20.3 -158.7,135.2 -209,139.4 -50.4,4.1 -934.6,-397.3 -924.6,-435.8"
         style="fill:#1c056d;fill-opacity:1;fill-rule:nonzero;stroke:none"
         id="path426" />
      <path
         d="m 16807.6,2200.1 c 0,0 137,-49.4 209,-169.1 l -81.8,-30.3 c 0,0 -120.9,136.8 -214.2,161.8 l 87,37.6"
         style="fill:#1b3d9e;fill-opacity:1;fill-rule:nonzero;stroke:none"
         id="path428" />
      <path
         d="m 16609.1,2112.7 c 0,0 137,-49.4 209.1,-169.2 l -81.8,-30.2 c 0,0 -120.9,136.7 -214.3,161.8 l 87,37.6"
         style="fill:#1b3d9e;fill-opacity:1;fill-rule:nonzero;stroke:none"
         id="path430" />
      <path
         d="m 16362.8,1997.8 c 0,0 137.6,-54.2 209.7,-174 l -81.8,-30.3 c 0,0 -120.9,136.8 -214.2,161.9 l 86.3,42.4"
         style="fill:#1b3d9e;fill-opacity:1;fill-rule:nonzero;stroke:none"
         id="path432" />
      <path
         d="m 18214.6,5017.2 c 0,0 -920,1352.6 -858.2,1373.9 61.7,21.2 2240.3,-52.6 2232.2,-105.6 -8,-53.1 713,-1322.4 660.1,-1341 -52.8,-18.6 -1842.4,65 -2034.1,72.7"
         style="fill:#1c056d;fill-opacity:1;fill-rule:nonzero;stroke:none"
         id="path434" />
      <path
         d="m 18816.1,5763 c 51,-99.5 33.8,-210.1 -38.3,-247.1 -72.2,-37 -172,13.7 -223,113.3 -51,99.5 -33.8,210.1 38.4,247.1 72.1,37 172,-13.8 222.9,-113.3"
         style="fill:#1b3d9e;fill-opacity:1;fill-rule:nonzero;stroke:none"
         id="path436" />
      <path
         d="m 20947.4,6562.8 c 0,0 163.6,-720.7 121.5,-748.8 -42.1,-28 -1031.4,-405.9 -1031.4,-405.9 l 131.4,-258.1 c 0,0 1364.4,197 1426.3,237.4 183.5,119.6 -10.7,1239.3 -10.7,1239.3 0,0 -505.7,-74.2 -637.1,-63.9"
         style="fill:#fe8e9c;fill-opacity:1;fill-rule:nonzero;stroke:none"
         id="path438" />
      <g
         id="g440">
        <g
           id="g442"
           clip-path="url(#clipPath446)">
          <path
             d="m 20936.2,6394.8 c 0,0 547.9,38.5 669,179.5 l -17.8,138.9 c 0,0 -683,-87.3 -683,-111.1 0,-23.9 31.8,-207.3 31.8,-207.3"
             style="fill:#e57492;fill-opacity:1;fill-rule:nonzero;stroke:none"
             id="path448" />
          <path
             d="m 21068.9,5814 c 0,0 156.3,-89.7 203.4,-176.1 47.1,-86.3 45.1,165.2 -197.2,233.7 -242.4,68.5 0,0 0,0 l -6.2,-57.6"
             style="fill:#e57492;fill-opacity:1;fill-rule:nonzero;stroke:none"
             id="path450" />
        </g>
      </g>
      <path
         d="m 18802.5,6972.1 -302.9,-606.5 507.3,-23.3 140,455 -344.4,174.8"
         style="fill:#fe8e9c;fill-opacity:1;fill-rule:nonzero;stroke:none"
         id="path452" />
      <g
         id="g454">
        <g
           id="g456"
           clip-path="url(#clipPath460)">
          <path
             d="m 18749.3,6941.2 c 0,0 250.9,-426.6 364.4,-419.2 l 98.9,324 -410.1,179.5 -53.2,-84.3"
             style="fill:#e57492;fill-opacity:1;fill-rule:nonzero;stroke:none"
             id="path462" />
        </g>
      </g>
    </g>
  </g>
</svg>
